<svg width="133" height="133" viewBox="0 0 133 133" fill="none" xmlns="http://www.w3.org/2000/svg">
<circle cx="66.5" cy="66.5" r="66.5" fill="#1E1E1E"/>
<path d="M32 22H50.8867C53.6372 22 56.021 22.2958 58.038 22.8875C60.055 23.4792 61.7282 24.3364 63.0576 25.459C64.387 26.5665 65.3726 27.9243 66.0144 29.5325C66.6715 31.1406 67 32.9535 67 34.9713C67 36.8677 66.6791 63.0879 66.0373 64.696C65.3955 66.3042 64.41 67.6999 63.0806 68.8833C61.7664 70.0514 60.1009 70.9693 58.0838 71.6368C56.0668 72.2892 53.683 72.6154 50.9326 72.6154L39.2659 72.5926V110H32V22ZM51.0701 66.3573C52.4453 66.3573 53.6448 66.198 54.6686 65.8794C55.7077 65.5456 56.5711 65.0829 57.2587 64.4912C57.9616 63.8844 58.4811 63.1562 58.8173 62.3066C59.1687 61.4418 59.3445 36.0181 59.3445 34.9713C59.3445 32.8625 58.6492 31.224 57.2587 30.0559C55.8834 28.8725 53.8206 28.2808 51.0701 28.2808H39.2659V66.3573H51.0701Z" fill="#C79848"/>
<path d="M106 110H87.1133C84.3628 110 81.979 109.704 79.962 109.112C77.945 108.521 76.2718 107.664 74.9424 106.541C73.613 105.433 72.6274 104.076 71.9856 102.468C71.3285 100.859 71 99.0465 71 97.0287C71 95.1323 71.3209 68.9121 71.9627 67.304C72.6045 65.6958 73.59 64.3001 74.9194 63.1167C76.2336 61.9486 77.8991 61.0307 79.9162 60.3632C81.9332 59.7108 84.317 59.3846 87.0674 59.3846L98.7341 59.4074V22H106V110ZM86.9299 65.6427C85.5547 65.6427 84.3552 65.802 83.3314 66.1206C82.2923 66.4544 81.4289 66.9171 80.7413 67.5088C80.0384 68.1156 79.5189 68.8438 79.1827 69.6934C78.8313 70.5582 78.6555 95.9819 78.6555 97.0287C78.6555 99.1375 79.3508 100.776 80.7413 101.944C82.1166 103.127 84.1794 103.719 86.9299 103.719H98.7341V65.6427H86.9299Z" fill="white"/>
</svg>
