<svg width="197" height="66" viewBox="0 0 197 66" fill="none" xmlns="http://www.w3.org/2000/svg">
<path d="M0 0H13.8798C15.9012 0 17.653 0.218978 19.1353 0.656934C20.6176 1.09489 21.8473 1.72937 22.8243 2.56036C23.8012 3.38012 24.5255 4.38518 24.9972 5.57552C25.4801 6.76586 25.7215 8.10781 25.7215 9.60135C25.7215 11.0051 25.4857 12.3021 25.014 13.4924C24.5424 14.6828 23.8181 15.7159 22.8411 16.5918C21.8754 17.4565 20.6513 18.1359 19.169 18.63C17.6867 19.1129 15.9349 19.3543 13.9135 19.3543L5.3397 19.3375V26.3279H0V0ZM14.0146 14.7221C15.0253 14.7221 15.9068 14.6042 16.6592 14.3683C17.4228 14.1213 18.0573 13.7788 18.5626 13.3408C19.0792 12.8916 19.461 12.3526 19.708 11.7238C19.9663 11.0837 20.0955 10.3762 20.0955 9.60135C20.0955 8.04043 19.5845 6.82762 18.5626 5.96294C17.5519 5.08703 16.0359 4.64907 14.0146 4.64907H5.3397V14.7221H14.0146Z" fill="white"/>
<path d="M39.1971 0H44.5368V14.5031C44.5368 15.6934 44.6996 16.7546 45.0253 17.6867C45.3509 18.6075 45.8338 19.388 46.4739 20.0281C47.1252 20.6682 47.9281 21.1567 48.8826 21.4935C49.8372 21.8192 50.9489 21.982 52.2179 21.982C53.4756 21.982 54.5817 21.8192 55.5362 21.4935C56.502 21.1567 57.3049 20.6682 57.945 20.0281C58.5963 19.388 59.0848 18.6075 59.4104 17.6867C59.7361 16.7546 59.8989 15.6934 59.8989 14.5031V0H65.2386V15.1432C65.2386 16.8725 64.9467 18.4447 64.3627 19.8596C63.7788 21.2746 62.9309 22.4874 61.8192 23.498C60.7075 24.5087 59.3431 25.2892 57.726 25.8394C56.1202 26.3897 54.2841 26.6648 52.2179 26.6648C50.1516 26.6648 48.3099 26.3897 46.6929 25.8394C45.087 25.2892 43.7282 24.5087 42.6165 23.498C41.5048 22.4874 40.6569 21.2746 40.073 19.8596C39.4891 18.4447 39.1971 16.8725 39.1971 15.1432V0Z" fill="white"/>
<path d="M80 0H93.8798C95.9012 0 97.653 0.218978 99.1353 0.656934C100.618 1.09489 101.847 1.72937 102.824 2.56036C103.801 3.38012 104.526 4.38518 104.997 5.57552C105.48 6.76586 105.722 8.10781 105.722 9.60135C105.722 11.0051 105.486 30.4133 105.014 31.6036C104.542 32.7939 103.818 33.8271 102.841 34.703C101.875 35.5677 100.651 36.2471 99.169 36.7412C97.6867 37.224 95.9349 37.4655 93.9135 37.4655L85.3397 37.4486V65.1376H80V0ZM94.0146 32.8332C95.0253 32.8332 95.9068 32.7153 96.6592 32.4795C97.4228 32.2325 98.0573 31.89 98.5626 31.452C99.0792 31.0028 99.461 30.4638 99.708 29.8349C99.9663 29.1948 100.095 10.3762 100.095 9.60135C100.095 8.04043 99.5845 6.82763 98.5626 5.96294C97.5519 5.08703 96.0359 4.64907 94.0146 4.64907H85.3397V32.8332H94.0146Z" fill="#C79848"/>
<path d="M129.551 0H135.211L147.945 26.3279H142.336L140.23 21.8978H124.851L122.813 26.3279H117.187L129.551 0ZM138.125 17.5014L132.431 5.54183L126.889 17.5014H138.125Z" fill="white"/>
<path d="M100.043 39.6721H105.382V61.3173H120.694V66H100.043V39.6721Z" fill="white"/>
<path d="M134.506 39.6721H156.926V44.3549H139.846V49.6104H154.972V54.0068H139.846V61.3341H157.28V66H134.506V39.6721Z" fill="white"/>
<path d="M179.313 52.6255L169.189 39.6721H175.725L182.715 48.7344L189.739 39.6721H196.174L185.865 52.575L196.528 66H189.975L182.479 56.5334L174.815 66H168.364L179.313 52.6255Z" fill="white"/>
</svg>
