<svg width="34" height="34" viewBox="0 0 34 34" fill="none" xmlns="http://www.w3.org/2000/svg">
<path fill-rule="evenodd" clip-rule="evenodd" d="M17 34C26.3888 34 34 26.3888 34 17C34 7.61116 26.3888 0 17 0C7.61116 0 0 7.61116 0 17C0 26.3888 7.61116 34 17 34ZM11.5401 7.37085L13.1354 8.85983C14.3354 9.97986 14.4125 11.8564 13.3083 13.071L12.5076 13.9517C12.1213 14.3766 11.926 14.9504 12.0774 15.5044C12.3974 16.6749 13.1512 18.331 14.62 19.3801C16.524 20.7401 18.1333 21.5335 18.7 21.7601L20.5262 20.0861C21.764 18.9515 23.6919 19.0536 24.8029 20.3127L25.9449 21.607C27.0215 22.8271 26.9291 24.6831 25.7368 25.7903L25.2043 26.2847C23.912 27.4847 22.0678 27.935 20.4914 27.1445C16.384 25.0846 10.3297 20.511 6.37564 12.8457C5.76195 11.656 5.96375 10.2254 6.8 9.18012L8.8375 7.34637C9.60843 6.65253 10.7818 6.66316 11.5401 7.37085Z" fill="#C79848"/>
</svg>
